<svg width="22" height="19" viewBox="0 0 22 19" fill="none" xmlns="http://www.w3.org/2000/svg">
<path d="M11.513 0.000976562C12.2191 1.9961 13.6055 3.67872 15.4287 4.75344C17.2519 5.82817 19.3955 6.22631 21.483 5.87798C21.4028 6.82939 21.0221 7.73066 20.396 8.4515C19.7699 9.17234 18.9308 9.6754 18 9.88798V17L20 17.001V19.001H1.99999V17.001H3.99999V9.88798C3.06913 9.6753 2.22996 9.17223 1.60371 8.45144C0.977459 7.73064 0.596545 6.82942 0.515991 5.87798C2.60371 6.22688 4.74761 5.82913 6.57123 4.75456C8.39485 3.67999 9.78161 1.9973 10.488 0.00197673H11.513V0.000976562ZM16 9.99998H5.99999V17H16V9.99998Z" fill="#0048F0"/>
</svg>
