<svg width="14" height="17" viewBox="0 0 14 17" fill="none" xmlns="http://www.w3.org/2000/svg">
<path d="M1.40004 0H12.6C12.8122 0 13.0157 0.0842854 13.1657 0.234315C13.3158 0.384344 13.4 0.587827 13.4 0.8V16.1144C13.4001 16.1859 13.381 16.2562 13.3448 16.3178C13.3085 16.3794 13.2563 16.4302 13.1938 16.4649C13.1312 16.4995 13.0605 16.5167 12.989 16.5147C12.9175 16.5128 12.8478 16.4917 12.7872 16.4536L7.00004 12.824L1.21284 16.4528C1.15233 16.4908 1.08275 16.5119 1.01132 16.5139C0.93989 16.516 0.869226 16.4988 0.806673 16.4643C0.74412 16.4297 0.691962 16.379 0.655623 16.3175C0.619284 16.256 0.60009 16.1859 0.600037 16.1144V0.8C0.600037 0.587827 0.684322 0.384344 0.834351 0.234315C0.98438 0.0842854 1.18786 0 1.40004 0ZM11.8 1.6H2.20004V13.9456L7.00004 10.9368L11.8 13.9456V1.6Z" fill="#FCFCFD"/>
</svg>
